<?xml version="1.0" encoding="utf-8"?>
<!-- Generator: Adobe Illustrator 19.0.0, SVG Export Plug-In . SVG Version: 6.00 Build 0)  -->
<svg version="1.1" id="Layer_1_1_" xmlns="http://www.w3.org/2000/svg" xmlns:xlink="http://www.w3.org/1999/xlink" x="0px" y="0px"
	 viewBox="-139 51 512 512" style="enable-background:new -139 51 512 512;" xml:space="preserve">
<style type="text/css">
	.st0{fill:#D35400;}
</style>
<path class="st0" d="M245,323c0-2.1-0.8-4.2-2.3-5.7l-2.3-2.3l2.3-2.3c1.5-1.5,2.3-3.5,2.3-5.7v-28.7l93.7-93.7l-11.3-11.3
	L277,223.7L200.3,147l50.3-50.3l-11.3-11.3L145.7,179H117c-2.1,0-4.2,0.8-5.7,2.3l-2.3,2.3l-2.3-2.3l-3-3l-29-29
	c-1.5-1.5-3.5-2.3-5.7-2.3H56.3L-5.3,85.3l-11.3,11.3L1.7,115L-75,191.7l-18.3-18.3l-11.3,11.3l61.7,61.7V291c0,2.1,0.8,4.2,2.3,5.7
	l21.7,21.7v25.4l-85.7,85.7l11.3,11.3l42.3-42.3L25.7,475l-42.3,42.3l11.3,11.3L80.3,443H109c2.1,0,4.2-0.8,5.7-2.3l5.7-5.7h25.4
	l93.7,93.7l11.3-11.3L200.3,467l76.7-76.7l50.3,50.3l11.3-11.3L245,335.7V323z M189,158.3l76.7,76.7L237,263.7L160.3,187L189,158.3z
	 M145.7,195l83.3,83.3v25.4L120.3,195H145.7z M229,326.3v9.4L145.7,419h-25.4L77,375.7v-9.4l10.3,10.3l11.3-11.3l-91-91
	C5.9,272.6,5,270.4,5,268c0-4.9,4-9,9-9c2.4,0,4.6,0.9,6.3,2.6l59,59l11.3-11.3l-59-59c-1.7-1.7-2.6-3.9-2.6-6.3c0-4.9,4-9,9-9
	c2.4,0,4.6,0.9,6.3,2.6l59,59l11.3-11.3l-59-59c-1.7-1.7-2.6-3.9-2.6-6.3c0-4.9,4-9,9-9c2.4,0,4.6,0.9,6.3,2.6l59,59l11.3-11.3
	l-59-59c-1.7-1.7-2.6-3.9-2.6-6.3c0-4.9,4-9,9-9c2.4,0,4.6,0.9,6.3,2.6l3,3L229,326.3z M13,126.3L41.7,155L-35,231.7L-63.7,203
	L13,126.3z M-27,246.3L56.3,163h9.4l10.2,10.2c-8.5,3.8-14.4,12.1-14.8,21.9c-13.1,0.5-23.5,10.9-24,24c-13.1,0.5-23.5,10.9-24,24
	C-0.3,243.6-11,254.5-11,268c0,6.7,2.6,12.9,7.3,17.7l5.4,5.4L-11,303.7l-16-16V246.3z M37,463.7L-39.7,387l28.7-28.7L65.7,435
	L37,463.7z M80.3,427L-3,343.7v-25.4l16-16l48,48V379c0,2.1,0.8,4.2,2.3,5.7l42.3,42.3H80.3z M189,455.7L160.3,427l76.7-76.7
	l28.7,28.7L189,455.7z"/>
<rect x="217.7" y="379" transform="matrix(-0.7071 0.7071 -0.7071 -0.7071 664.5695 498.7263)" class="st0" width="22.6" height="16"/>
<rect x="21" y="415.7" transform="matrix(-0.7071 0.7071 -0.7071 -0.7071 351.4327 708.4286)" class="st0" width="16" height="22.6"/>
<rect x="-6.3" y="155" transform="matrix(-0.7071 0.7071 -0.7071 -0.7071 123.7912 274.724)" class="st0" width="22.6" height="16"/>
<rect x="189" y="183.7" transform="matrix(-0.7071 0.7071 -0.7071 -0.7071 474.1815 193.5908)" class="st0" width="16" height="22.6"/>
</svg>
