<?xml version="1.0" encoding="utf-8"?>
<!-- Generator: Adobe Illustrator 19.0.0, SVG Export Plug-In . SVG Version: 6.00 Build 0)  -->
<svg version="1.1" id="Capa_1" xmlns="http://www.w3.org/2000/svg" xmlns:xlink="http://www.w3.org/1999/xlink" x="0px" y="0px"
	 viewBox="-139 51 512 512" style="enable-background:new -139 51 512 512;" xml:space="preserve">
<style type="text/css">
	.st0{fill:#F39C12;}
</style>
<g>
	<g>
		<path class="st0" d="M251.7,349.4c0-7.2-5.8-13-13-13c-29.5,0-46-15.8-59.2-28.6c-4.2-4-7.9-7.6-11.8-10.4c-4.5-4-10.2-6.8-16-8.3
			l-8.3,8.4l-8.1-8.5c0,0-0.1,0-0.1,0c-5.2,1.3-10.3,3.7-14.6,7.1c-4.6,2.9-8.9,7-13.8,11.7c-13.2,12.7-29.6,28.6-59.2,28.6
			c-7.2,0-13,5.8-13,13c0,7.2,5.8,13,13,13c27.6,0,47.3-10.7,61.4-21.8v51.6c0,4.2,0.9,8,2.6,11.4c0,0.1,0,0.3,0,0.4l-0.1,124.7
			c0,8.5,6.9,15.4,15.4,15.4c0,0,0,0,0,0c8.5,0,15.4-6.9,15.4-15.4l0.1-107c0.3,0,0.7,0,1,0c0.4,0,0.8,0,1.2,0l0,107
			c0,8.5,6.9,15.4,15.4,15.4c8.5,0,15.4-6.9,15.4-15.4l0-124.7c0-0.3-0.1-0.5-0.1-0.8c1.5-3.3,2.4-7,2.4-11.1V341
			c14.1,10.9,33.6,21.4,61,21.4C245.9,362.4,251.7,356.6,251.7,349.4z M143.5,363.9h-0.2l-8.1-11.1l8.1-54.1h0.2l1.3,8.4
			c0,0.4,0.1,0.8,0.2,1.2l6.6,44.4L143.5,363.9z"/>
		<circle class="st0" cx="143.4" cy="253.6" r="33.5"/>
		<circle class="st0" cx="288.2" cy="316.7" r="26.2"/>
		<path class="st0" d="M362.8,381.4c-23.1,0-36-12.4-46.3-22.4c-3.3-3.2-6.2-6-9.2-8.2c-3.6-3.1-8-5.4-12.5-6.5l-6.5,6.6l-6.3-6.7
			c0,0,0,0-0.1,0c-4.1,1-8.1,2.9-11.4,5.5c-3.6,2.3-6.9,5.5-10.8,9.2c-10.3,10-23.2,22.4-46.3,22.4c-5.6,0-10.2,4.6-10.2,10.2
			c0,5.6,4.6,10.2,10.2,10.2c21.6,0,37-8.4,48.1-17v40.4c0,3.2,0.7,6.2,2,8.9c0,0.1,0,0.2,0,0.3l-0.1,97.6c0,6.7,5.4,12,12,12.1
			c0,0,0,0,0,0c6.6,0,12-5.4,12-12l0.1-83.7c0.3,0,0.5,0,0.8,0c0.3,0,0.6,0,0.9,0V532c0,6.7,5.4,12,12,12c6.7,0,12-5.4,12-12v-97.5
			c0-0.2,0-0.4-0.1-0.6c1.2-2.6,1.9-5.5,1.9-8.7V385c11,8.6,26.3,16.8,47.7,16.8c5.6,0,10.2-4.6,10.2-10.2
			C373,386,368.4,381.4,362.8,381.4z M288.3,403h-0.1l-6.3-8.7l6.3-42.3h0.1l1,6.6c0,0.3,0.1,0.7,0.1,1l5.2,34.7L288.3,403z"/>
		<circle class="st0" cx="-9.9" cy="316.7" r="26.2"/>
		<path class="st0" d="M64.7,381.4c-23.1,0-36-12.4-46.3-22.4c-3.3-3.2-6.2-6-9.2-8.2c-3.6-3.1-8-5.4-12.5-6.5l-6.5,6.6l-6.3-6.7
			c0,0,0,0-0.1,0c-4.1,1-8.1,2.9-11.5,5.5c-3.6,2.3-6.9,5.5-10.8,9.2c-10.3,10-23.2,22.4-46.3,22.4c-5.6,0-10.2,4.6-10.2,10.2
			c0,5.6,4.6,10.2,10.2,10.2c21.6,0,37-8.4,48.1-17v40.4c0,3.2,0.7,6.2,2,8.9c0,0.1,0,0.2,0,0.3l-0.1,97.6c0,6.7,5.4,12,12,12.1
			c0,0,0,0,0,0c6.7,0,12-5.4,12-12l0.1-83.7c0.3,0,0.5,0,0.8,0c0.3,0,0.6,0,0.9,0l0,83.7c0,6.7,5.4,12,12,12s12-5.4,12-12v-97.5
			c0-0.2-0.1-0.4-0.1-0.6c1.2-2.6,1.9-5.5,1.9-8.7V385c11,8.6,26.3,16.8,47.7,16.8c5.6,0,10.2-4.6,10.2-10.2
			C74.8,386,70.3,381.4,64.7,381.4z M-9.9,403H-10l-6.3-8.7L-10,352h0.1l1,6.6c0,0.3,0.1,0.7,0.2,1l5.2,34.7L-9.9,403z"/>
		<polygon class="st0" points="70.5,105.8 70.8,107.9 67.7,108.5 67.3,113 71.1,113 76.1,112.5 78.7,109.4 75.9,108.3 74.4,106.6 
			72.1,103 71.1,97.8 66.8,98.7 65.6,100.5 65.6,102.5 67.7,104 		"/>
		<polygon class="st0" points="67,107.5 67.1,104.7 64.7,103.6 61.2,104.4 58.6,108.6 58.6,111.3 61.6,111.3 		"/>
		<path class="st0" d="M-5.5,121.3h-3.7v1.9h0.9c0,0,0.1,0.4,0.1,0.9l2.3-0.2l1.4-0.9l0.4-1.8l1.8-0.1l0.7-1.5l-1.7-0.4l-1.4,0
			L-5.5,121.3z"/>
		<polygon class="st0" points="-14.4,124.7 -11.7,124.5 -11.5,122.6 -13.1,121.3 -14.3,122.9 		"/>
		<polygon class="st0" points="256,215.4 256.7,217.8 276.1,218.7 269.7,214.6 261.8,214.8 261.4,210.5 262.7,211.1 265.8,210.7 
			265.5,206.7 256.9,206.8 254.6,203.7 254.7,202.1 243.6,192.1 240.8,194.3 256.7,213.6 258.9,214.4 258.9,215.4 		"/>
		<polygon class="st0" points="281.5,189.1 279.6,189.1 278.3,192.4 276.9,193.8 265.6,199.9 265.6,205.9 269.4,210.9 278.8,210.9 
			280,207.8 282.2,205.9 282.2,204.4 283.5,203.6 283.5,193 282.2,192.4 		"/>
		<polygon class="st0" points="283.5,214.9 286.4,214.9 286,209.9 288.2,210.7 288.2,214.3 290.6,214.1 290.5,203.6 284.8,205.8 
			284.9,207.1 283.5,207.1 		"/>
		<polygon class="st0" points="330.6,230.5 326.8,223.9 323.4,223.7 322,235.6 315.5,235.1 313.6,234 313.4,229.3 316.8,230 
			319.8,227.2 313.5,223.4 306.2,223.4 300.9,230.9 298.8,230.9 298.8,228.5 292.4,229 282.4,240.4 277.1,240.5 271.2,244.5 
			270.8,262.2 267.2,265.6 267.2,268.7 284.5,262.8 298.4,262.3 303.5,273.7 319.4,274.2 334.7,259.8 338.5,251.2 336.9,244.9 
			331.1,239.9 		"/>
		<polygon class="st0" points="315.9,277.1 310.9,276.6 305.6,282.4 311.2,283 315.7,280.5 		"/>
		<polygon class="st0" points="328.5,283.6 328.5,286.3 334.3,285.4 348.5,276.7 352.5,274.1 356.8,272.2 361.1,269.7 359.5,266.9 
			357.2,267.3 357.1,262.1 352.9,262.4 352.3,270.6 348.5,273.2 341.5,274.1 330.3,282.1 		"/>
		<polygon class="st0" points="315.5,208.1 311.9,208.2 312.2,204.5 308.7,202.4 303.9,207.3 307.2,211.4 314.3,212.4 318.2,214.5 
			318.3,216.4 315.7,216.4 315.9,220.4 324.5,219.9 327.6,216.5 331,216.2 331,222.3 336.8,222.3 336.8,219.9 333.8,219.9 
			333.3,212.4 319.4,206.1 		"/>
		<polygon class="st0" points="212.2,190.3 213.6,193.9 218.5,192.1 219,187 215.1,186.3 		"/>
		<polygon class="st0" points="289.7,218.2 291.4,218.7 292,217 289.7,217 		"/>
		<rect x="279.6" y="218.7" class="st0" width="2.6" height="1.4"/>
		<polygon class="st0" points="285.1,218.7 283.5,220.1 283.5,221.4 285.9,221.1 285.9,220.1 287.5,220.1 287.5,218.9 288.7,218.7 
			288.7,217.5 286.1,217.5 		"/>
		<polygon class="st0" points="290,220.1 290,222.4 292.5,222.4 292.5,221.3 295.1,221.3 295.1,219.9 296.9,220.1 296.7,217.8 
			293.7,218.3 293.5,219.8 290.2,220.1 		"/>
		<path class="st0" d="M45.5,165.6l-0.7,4.2l-2,0.8l-0.1,11L55,195.6h5.4l0.4-0.9h9.6l2.8-2.6h5.5l3,3l8.2,0.8l-1.1,10.9l9.1,16
			l-4.8,9.1l0.3,4.3l3.3,3.2c7.5-17.7,25-30.2,45.4-30.2c0.7,0,1.4,0.1,2,0.1l8.6-8.2l13.3-19l-2.5-1.2l-13.8,2.9l-3.6-1.8
			l-14.5-27.4l1-1.2l14.4,17.5l0.4,5.4l3.3,3.3l6.8-0.4l14.1-10.2l4.5-2.9l-0.1-3.6l-4.7-0.6c0,0-16.6-7.8-16.6-8.2
			c0-0.4,0.1-6.7,0.1-6.7h3.7l0.5,4.6l7.7,4.4l8.8,0.4l19,3.1l4.5,2.8v4.3l-0.6,5.9l9.8,16l3.1,0.7l3.2-4.6l1.7-13l3.3-7l5.2-2
			l9.2,0.9l11.6,10.3v14.8l15.3,14.7l0.8-2.6l-12.5-17.7l1.3-5.2l6.6,7.5l3.7,0.4l4.8-3.2l-0.8-4.8l-8-6.4l-0.3-5.8l2.3-3.1l4,1.3
			l-0.3,2.7l2.3,3.6l2-1.5l-1.1-4.2l11.3-4l4.9-4.1l-0.8-7.5l-9.8-10.3l-0.2-8.4h4.4l13.6,10.3l3.8-1l-2.6-3.3l-7.3-4.4l0.5-6.6
			l8.6,0l0.7-8.1l-3.3-4.3l2-2.1l4.2,4.2l1.4-1.8l-5.4-6.1l-13.3-1.6l-1.8-3.6l3.9-5.5l3,2.3l9.2,0.8l11.6-7.7l1.9,2.4l-2.6,4.1v4
			l10.7,8.7l3.4-1.8l-1.3-5.8l-7.6-7.1l10-0.7v-2.9l4.8-1l-3.7-2.6l0.1-2l10.2,1.6l1.9-1.6l-13.7-5.8l-50-2.6l-4.7-2.4l-7.5-1.1
			l-5.5-0.2l-5.1,5.1l-2.1-0.2l-6.7-5H217l-9.2-5.5L189.4,71l-14,6.3l0.1,7.2l-4.3,1.3l-1-7.3l-1.6-2.5l-4.8-1.2l-1.1,4.4l1.4,3.6
			l-17.2-1.1l-8.2,3.8l-1.3-3.6l-2.1,0.5l-1.5,4l-4.3,3.4L119,89.4l-0.5-2.3l11-0.5l2.2-1.9l-13.2-6.2L102.4,79l-9,4.6L90,89.7
			L84,92l-2.5,2.8L82,98l3.1,0.4l1.9,4.7l5.3-2.1l0.9,6.2h-1.7l-4.3-0.6l-4.8,0.8l-4.7,6.6L71,115l-0.9,5.7l2.8,0.7l-0.8,3.7
			l-6.7-1.3l-6.1,1.3l-1.3,3.4l1,7.1l3.6,1.7l6,0l4.1-0.4l1.3-3.2l6.3-8.2l4.2,0.8l4.1-3.7l0.8,2.9l10.1,6.8l-1.2,1.7l-4.6-0.3
			l1.7,2.5l2.8,0.6l3.3-1.4l-0.1-4l1.5-0.7l-1.2-1.3l-6.7-3.8l-1.7-5h5.6l1.8,1.8l4.9,4.2l0.2,5l5,5.3l1.9-7.3l3.5-1.9l0.7,6
			l3.4,3.7l10.2-0.2l3,2.2v5.4l-3.7,3.4h-10.4l-6.3-4.7l-6.6,0.7v4h-2.1l-2.2-1.6l-11.5-2.9v-7.4l-14.6,1.1l-4.5,2.4h-5.7l-2.8-0.3
			l-7,3.9v7.3l-14.3,10.4l1.2,4.4L45.5,165.6L45.5,165.6L45.5,165.6z M151.4,118.2l4.4-0.4l3.7,1.6l0.2,2.6l-5.3-0.3l-0.3,2.4
			l6.6,4.4v3.2l2.9,2.1v2.3h0l-1.5,1.4l-3.4-0.3l-0.6-1l-5.3-0.4l0.4-1.7l2.9-2.4v-2l-5.4-3.9l-0.2-5L151.4,118.2z M111.7,87.1
			l-6.4,3.9v2.6l3.6,1.7l0.3,3.5l-5.1,7.6l-8.9-0.1l-0.6-1.8l5.6-2.8l0.1-10.5l9.4-6.6h2.1L111.7,87.1L111.7,87.1z M131.4,132
			L131.4,132l-8.4-0.4l-2.5,0.4v-5.7l1.9-2.1l2-0.6l4.5-0.5l1-1.5l1.8,0.9l0.2,5.2l4.9,2l0.4,2.4L131.4,132L131.4,132z"/>
		<path class="st0" d="M-103.7,145h2.9l1.2,7.6l7.2,10.4l-1.9,3.4l4.6,7l11.3,2.8v-1.8l4.5,0.6l-0.4,3.2l3.5,0.6l5.5,1.5l7.8,8.8
			l9.9,0.7l1,8.1l-6.8,4.7l-0.3,7.2l-0.9,4.4l9.8,12.3l0.8,4.2c0,0,3.6,1,4,1c0.4,0,8,5.7,8,5.7v22.1l2.7,0.8l-1.9,10.2l4.5,6
			l-0.5,6.4c3.9-1.7,8.2-2.7,12.6-3.1l-0.6-0.2l0.2-2.2l5.1-0.8l7.7-3.7l2.6-4.7L8.2,258L6.3,250l2.5-4.3l7.4,0.2l5-3.9l1.6-15.6
			l5.5-7.1l1-4.5l-5.1-1.6l-3.3-5.5l-11.4-0.1l-9-3.4l-0.4-6.4l-3-5.3l-8.1-0.1l-4.7-7.4l-4.2-2l-0.2,2.2l-7.6,0.5l-2.8-3.9l-8-1.6
			l-6.6,7.6l-10.3-1.7l-0.8-11.6l-7.6-1.3l3-5.7l-0.9-3.3l-9.9,6.6l-6.2-0.8L-80,165l1.4-5l3.4-6.3l7.9-4H-52l0,4.7l5.5,2.5l-0.5-8
			l4-4l8-5.3l0.5-3.7l8-8.3l8.5-4.7l-0.8-0.6l5.7-5.4l2.1,0.5l1,1.2l2.2-2.4l0.5-0.2l-2.3-0.3l-2.4-0.8v-2.4l1.3-1H-8l1.3,0.6
			l1.1,2.2l1.4-0.2V114l0.4,0.1l4-0.6l0.6-1.9l2.2,0.6v2.1l-2.1,1.5l0.3,2.3l7.2,2.2c0,0,0,0,0,0.1l1.6-0.1l0.1-3.1l-5.7-2.6
			l-0.3-1.5l4.7-1.6l0.2-4.5l-4.9-3l-0.3-7.6l-6.8,3.3h-2.5l0.6-5.8l-9.2-2.2l-3.8,2.9v8.8l-6.9,2.1l-2.8,5.8l-3,0.5v-7.3l-6.5-0.9
			l-3.2-2.1l-1.3-4.7l11.5-6.8l5.6-1.7l0.6,3.8l3.2-0.2l0.3-1.9l3.3-0.5l0-0.6l-1.4-0.6l-0.3-2l4-0.3l2.4-2.5l0.2-0.2v0l0.7-0.8
			l8.5-1.1L1,84.3l-9.9,5.3l12.6,3l1.6-4.2h5.5l1.9-3.6l-3.9-1V79l-12.2-5.4l-8.4,1l-4.8,2.5l0.4,6l-4.9-0.8l-0.8-3.3l4.7-4.3
			l-8.6-0.4l-2.5,0.7l-1.1,2.9l3.2,0.6l-0.7,3.2l-5.5,0.3l-0.9,2.1l-8,0.2c0,0-0.2-4.5-0.5-4.5c-0.3,0,6.2-0.1,6.2-0.1l4.7-4.6
			l-2.6-1.3l-3.4,3.4l-5.7-0.3l-3.4-4.7H-53l-7.6,5.7h7l0.6,2l-1.8,1.7l7.8,0.2l1.2,2.8l-8.7-0.4l-0.4-2.1l-5.5-1.2l-2.9-1.6
			l-12.9,0.1l-4,3.9l-2.7-0.2l-3-1.7l-8.9-2.7h-16.4l-9.5,6.4l-6.4,1l-2.9,2.3l4.5,0.7v1.8h-9.6l-3.8,2.7l4.8,4.1l13.2,0.1l1.8-2
			h11.1l4,3.6l-0.2,5.5l3.4,3.1l-2.8,2l0.6,7.2l-10,12.1v11.4l5.4,2.6v10.2l5.2,8.8l4.2,0.6l0.5-3l-4.9-7.6L-103.7,145z M-39.4,130
			h-4.1l0.7-2.8l1.9-0.2l0.4-1l3-0.4v2.5h0L-39.4,130z M-36.5,123.1l-1.9,1.3l-2.4,0.4c0,0,0-3.8,0-4.3h4.4L-36.5,123.1L-36.5,123.1
			z M-32.9,120.1l2,1.2l-1.6,1.3l-1.5-1.3L-32.9,120.1z M-35.5,123.3h0.3l4.9,1.4v2.5h-4.2l-1.1-1.6
			C-35.5,125.7-35.5,123.3-35.5,123.3z M-38.7,116.4l2.7,2.4l-2.7,0.7V116.4z M-50,116.8l3.7-1.5h5.1v1.5h1.1v2.7h-7.8l-2.9-0.8
			L-50,116.8z M-50.7,123.7l3-3.2h4.3l-5.5,7.7l-2.3-1.2L-50.7,123.7z M-54.7,105.5l3,0.7l-1.1,4.1l-3.3,1.1l-2.1-4.3L-54.7,105.5z
			 M-70,86v-0.2h2.8l0.3-1h4.6v2l-1.4,1.8H-70L-70,86L-70,86z M-65.5,92.3c0,0,2.8-0.5,3.1-0.5c0.2,0,0,2.8,0,2.8l-6.4,0.4l-1.2-1.4
			L-65.5,92.3z"/>
	</g>
</g>
</svg>
